# xmcd
#
# Track frame offsets:
# 150
# 17552
# 37280
# 54746
# 77522
# 91230
# 110244
# 128832
# 154901
# 170464
#
# Disc length: 2546 seconds
#
# Revision: 1
# Processed by: cddbd v1.5.2PL0 Copyright (c) Steve Scherf et al.
# Submitted via: TinyPlayer 2.8
#
DISCID=8009f00a
DTITLE=Dan Patlansky - Dear Silence Thieves
DYEAR=2014
DGENRE=Blues Rock
TTITLE0=Backbite
TTITLE1=Pop Collar Jockey
TTITLE2=Fetch Your Spade
TTITLE3=Hold On
TTITLE4=Taking Changes
TTITLE5=Windmills and the Sea
TTITLE6=Only an Ocean [Reprise]
TTITLE7=Your War
TTITLE8=Feels Like Home
TTITLE9=Madison Lane
EXTD=Location:  - UPC:  - Catalogue number:  - Label: <SELF-PUBLISHED> - ASIN: B00VNAA2NG - Release Date: 2014 08 26 - Discogs: a4312185,m999755,r7650800 - MUSICBRAINZ_ALBUMID: b9bd6646-aab7-41df-b018-7530995fe2d2 - AMG: mn0001726418,mw0002841726;
EXTT0=
EXTT1=
EXTT2=
EXTT3=
EXTT4=
EXTT5=
EXTT6=
EXTT7=
EXTT8=
EXTT9=
PLAYORDER=
